<?xml version="1.0" encoding="UTF-8"?>
<!DOCTYPE svg PUBLIC "-//W3C//DTD SVG 1.1//EN" "http://www.w3.org/Graphics/SVG/1.1/DTD/svg11.dtd">
<svg xmlns="http://www.w3.org/2000/svg" version="1.1" width="554px" height="98px" style="shape-rendering:geometricPrecision; text-rendering:geometricPrecision; image-rendering:optimizeQuality; fill-rule:evenodd; clip-rule:evenodd" xmlns:xlink="http://www.w3.org/1999/xlink">
<g><path style="opacity:0.694" fill="#221f1f" d="M 302.5,6.5 C 304.5,6.5 306.5,6.5 308.5,6.5C 308.5,8.5 308.5,10.5 308.5,12.5C 306.5,12.5 304.5,12.5 302.5,12.5C 302.5,10.5 302.5,8.5 302.5,6.5 Z"/></g>
<g><path style="opacity:0.661" fill="#221f1f" d="M 527.5,6.5 C 529.5,6.5 531.5,6.5 533.5,6.5C 533.5,8.5 533.5,10.5 533.5,12.5C 531.5,12.5 529.5,12.5 527.5,12.5C 527.5,10.5 527.5,8.5 527.5,6.5 Z"/></g>
<g><path style="opacity:0.751" fill="#221f1f" d="M 360.5,7.5 C 362.5,7.5 364.5,7.5 366.5,7.5C 366.5,9.16667 366.5,10.8333 366.5,12.5C 364.5,12.5 362.5,12.5 360.5,12.5C 360.5,10.8333 360.5,9.16667 360.5,7.5 Z"/></g>
<g><path style="opacity:0.751" fill="#221f1f" d="M 367.5,7.5 C 369.5,7.5 371.5,7.5 373.5,7.5C 373.5,9.16667 373.5,10.8333 373.5,12.5C 371.5,12.5 369.5,12.5 367.5,12.5C 367.5,10.8333 367.5,9.16667 367.5,7.5 Z"/></g>
<g><path style="opacity:0.904" fill="#221f1f" d="M 149.5,13.5 C 157.943,13.0619 166.277,13.5619 174.5,15C 177.136,19.5329 177.136,24.0329 174.5,28.5C 176.301,31.5354 176.968,34.8687 176.5,38.5C 173.833,38.5 171.167,38.5 168.5,38.5C 168.5,36.5 168.5,34.5 168.5,32.5C 164.5,32.5 160.5,32.5 156.5,32.5C 156.5,34.5 156.5,36.5 156.5,38.5C 154.167,38.5 151.833,38.5 149.5,38.5C 149.5,30.1667 149.5,21.8333 149.5,13.5 Z M 156.5,20.5 C 160.182,20.3347 163.848,20.5014 167.5,21C 168.833,22.3333 168.833,23.6667 167.5,25C 163.848,25.4986 160.182,25.6653 156.5,25.5C 156.5,23.8333 156.5,22.1667 156.5,20.5 Z"/></g>
<g><path style="opacity:0.851" fill="#221f1f" d="M 179.5,13.5 C 182.167,13.5 184.833,13.5 187.5,13.5C 187.334,19.1764 187.501,24.8431 188,30.5C 191.667,31.8333 195.333,31.8333 199,30.5C 199.499,24.8431 199.666,19.1764 199.5,13.5C 202.167,13.5 204.833,13.5 207.5,13.5C 207.932,21.2792 207.432,28.9458 206,36.5C 205.5,37 205,37.5 204.5,38C 197.5,38.6667 190.5,38.6667 183.5,38C 182.584,37.6258 181.75,37.1258 181,36.5C 179.568,28.9458 179.068,21.2792 179.5,13.5 Z"/></g>
<g><path style="opacity:0.871" fill="#221f1f" d="M 210.5,13.5 C 214.182,13.3347 217.848,13.5014 221.5,14C 223.707,18.2475 226.04,22.4141 228.5,26.5C 231.338,22.8282 233.671,18.8282 235.5,14.5C 239.107,13.5108 242.774,13.1774 246.5,13.5C 246.5,21.8333 246.5,30.1667 246.5,38.5C 244.167,38.5 241.833,38.5 239.5,38.5C 239.666,33.4889 239.499,28.4889 239,23.5C 236.667,28.1667 234.333,32.8333 232,37.5C 229.861,38.7691 227.695,38.7691 225.5,37.5C 223.079,33.6597 220.912,29.6597 219,25.5C 218.501,29.8206 218.334,34.1539 218.5,38.5C 215.833,38.5 213.167,38.5 210.5,38.5C 210.5,30.1667 210.5,21.8333 210.5,13.5 Z"/></g>
<g><path style="opacity:0.849" fill="#221f1f" d="M 249.5,13.5 C 257.833,13.5 266.167,13.5 274.5,13.5C 274.5,15.8333 274.5,18.1667 274.5,20.5C 268.833,20.5 263.167,20.5 257.5,20.5C 257.5,21.5 257.5,22.5 257.5,23.5C 262.833,23.5 268.167,23.5 273.5,23.5C 273.5,25.5 273.5,27.5 273.5,29.5C 268.125,29.1718 262.792,29.5052 257.5,30.5C 263.128,31.4954 268.794,31.8288 274.5,31.5C 274.5,33.8333 274.5,36.1667 274.5,38.5C 266.167,38.5 257.833,38.5 249.5,38.5C 249.5,30.1667 249.5,21.8333 249.5,13.5 Z"/></g>
<g><path style="opacity:0.837" fill="#221f1f" d="M 277.5,13.5 C 280.167,13.5 282.833,13.5 285.5,13.5C 285.5,19.5 285.5,25.5 285.5,31.5C 290.167,31.5 294.833,31.5 299.5,31.5C 299.5,33.8333 299.5,36.1667 299.5,38.5C 292.167,38.5 284.833,38.5 277.5,38.5C 277.5,30.1667 277.5,21.8333 277.5,13.5 Z"/></g>
<g><path style="opacity:0.819" fill="#221f1f" d="M 301.5,13.5 C 304.167,13.5 306.833,13.5 309.5,13.5C 309.5,21.8333 309.5,30.1667 309.5,38.5C 306.833,38.5 304.167,38.5 301.5,38.5C 301.5,30.1667 301.5,21.8333 301.5,13.5 Z"/></g>
<g><path style="opacity:0.848" fill="#221f1f" d="M 325.5,13.5 C 334.167,13.5 342.833,13.5 351.5,13.5C 351.5,15.8333 351.5,18.1667 351.5,20.5C 348.5,20.5 345.5,20.5 342.5,20.5C 342.5,26.5 342.5,32.5 342.5,38.5C 339.833,38.5 337.167,38.5 334.5,38.5C 334.5,32.5 334.5,26.5 334.5,20.5C 331.5,20.5 328.5,20.5 325.5,20.5C 325.5,18.1667 325.5,15.8333 325.5,13.5 Z"/></g>
<g><path style="opacity:0.926" fill="#221f1f" d="M 353.5,13.5 C 355.833,13.5 358.167,13.5 360.5,13.5C 360.334,19.1764 360.501,24.8431 361,30.5C 365,31.8333 369,31.8333 373,30.5C 373.499,24.8431 373.666,19.1764 373.5,13.5C 375.833,13.5 378.167,13.5 380.5,13.5C 380.8,21.2233 380.467,28.8899 379.5,36.5C 378.975,37.1924 378.308,37.6924 377.5,38C 370.5,38.6667 363.5,38.6667 356.5,38C 355.692,37.6924 355.025,37.1924 354.5,36.5C 353.533,28.8899 353.2,21.2233 353.5,13.5 Z"/></g>
<g><path style="opacity:0.902" fill="#221f1f" d="M 384.5,13.5 C 392.943,13.0619 401.277,13.5619 409.5,15C 412.136,19.5329 412.136,24.0329 409.5,28.5C 411.184,31.6124 411.85,34.9457 411.5,38.5C 408.833,38.5 406.167,38.5 403.5,38.5C 403.739,36.5328 403.406,34.6995 402.5,33C 398.848,32.5014 395.182,32.3347 391.5,32.5C 391.5,34.5 391.5,36.5 391.5,38.5C 389.167,38.5 386.833,38.5 384.5,38.5C 384.5,30.1667 384.5,21.8333 384.5,13.5 Z M 391.5,20.5 C 395.182,20.3347 398.848,20.5014 402.5,21C 403.833,22.3333 403.833,23.6667 402.5,25C 398.848,25.4986 395.182,25.6653 391.5,25.5C 391.5,23.8333 391.5,22.1667 391.5,20.5 Z"/></g>
<g><path style="opacity:0.85" fill="#221f1f" d="M 414.5,13.5 C 417.167,13.5 419.833,13.5 422.5,13.5C 422.183,16.5719 422.516,19.5719 423.5,22.5C 426.651,19.8496 429.651,17.0162 432.5,14C 435.833,13.3333 439.167,13.3333 442.5,14C 438.6,17.8104 434.934,21.8104 431.5,26C 435.375,30.0432 439.375,33.8765 443.5,37.5C 439.878,38.6586 436.211,38.8253 432.5,38C 429.651,34.9838 426.651,32.1504 423.5,29.5C 422.516,32.4281 422.183,35.4281 422.5,38.5C 419.833,38.5 417.167,38.5 414.5,38.5C 414.5,30.1667 414.5,21.8333 414.5,13.5 Z"/></g>
<g><path style="opacity:0.891" fill="#221f1f" d="M 445.5,13.5 C 447.833,13.5 450.167,13.5 452.5,13.5C 452.5,19.5 452.5,25.5 452.5,31.5C 457.5,31.5 462.5,31.5 467.5,31.5C 467.5,33.8333 467.5,36.1667 467.5,38.5C 460.167,38.5 452.833,38.5 445.5,38.5C 445.5,30.1667 445.5,21.8333 445.5,13.5 Z"/></g>
<g><path style="opacity:0.849" fill="#221f1f" d="M 468.5,13.5 C 476.833,13.5 485.167,13.5 493.5,13.5C 493.5,15.8333 493.5,18.1667 493.5,20.5C 487.833,20.5 482.167,20.5 476.5,20.5C 476.5,21.5 476.5,22.5 476.5,23.5C 481.833,23.5 487.167,23.5 492.5,23.5C 492.5,25.5 492.5,27.5 492.5,29.5C 487.125,29.1718 481.792,29.5052 476.5,30.5C 482.128,31.4954 487.794,31.8288 493.5,31.5C 493.5,33.8333 493.5,36.1667 493.5,38.5C 485.167,38.5 476.833,38.5 468.5,38.5C 468.5,30.1667 468.5,21.8333 468.5,13.5 Z"/></g>
<g><path style="opacity:0.891" fill="#221f1f" d="M 496.5,13.5 C 504.943,13.0619 513.277,13.5619 521.5,15C 524.167,19.6667 524.167,24.3333 521.5,29C 523.34,31.8263 524.006,34.9929 523.5,38.5C 520.833,38.5 518.167,38.5 515.5,38.5C 515.5,36.5 515.5,34.5 515.5,32.5C 511.833,32.5 508.167,32.5 504.5,32.5C 504.5,34.5 504.5,36.5 504.5,38.5C 501.833,38.5 499.167,38.5 496.5,38.5C 496.5,30.1667 496.5,21.8333 496.5,13.5 Z M 504.5,20.5 C 507.85,20.335 511.183,20.5017 514.5,21C 515.833,22.3333 515.833,23.6667 514.5,25C 511.183,25.4983 507.85,25.665 504.5,25.5C 504.5,23.8333 504.5,22.1667 504.5,20.5 Z"/></g>
<g><path style="opacity:0.849" fill="#221f1f" d="M 526.5,13.5 C 529.167,13.5 531.833,13.5 534.5,13.5C 534.5,21.8333 534.5,30.1667 534.5,38.5C 531.833,38.5 529.167,38.5 526.5,38.5C 526.5,30.1667 526.5,21.8333 526.5,13.5 Z"/></g>
<g><path style="opacity:1" fill="#d42333" d="M 78.5,25.5 C 77.6618,25.8417 77.3284,26.5084 77.5,27.5C 76.8333,27.5 76.5,27.8333 76.5,28.5C 75.6618,28.8417 75.3284,29.5084 75.5,30.5C 74.6618,30.8417 74.3284,31.5084 74.5,32.5C 73.6618,32.8417 73.3284,33.5084 73.5,34.5C 72.6618,34.8417 72.3284,35.5084 72.5,36.5C 71.8333,36.8333 71.1667,37.1667 70.5,37.5C 69.3418,34.1783 67.0084,32.0117 63.5,31C 59.8333,30.3333 56.1667,30.3333 52.5,31C 51.944,31.3826 51.6107,31.8826 51.5,32.5C 45.5693,35.7077 43.4026,40.7077 45,47.5C 45.3661,49.4517 46.1995,51.1184 47.5,52.5C 46.6895,57.4311 46.3562,62.7645 46.5,68.5C 43.8021,68.1551 41.8021,66.8218 40.5,64.5C 39.8699,51.7047 39.2033,39.038 38.5,26.5C 39.5,25.1667 40.5,23.8333 41.5,22.5C 44.04,19.3932 47.3733,17.5599 51.5,17C 60.6088,15.1542 68.9421,16.8208 76.5,22C 77.8228,22.8159 78.4894,23.9826 78.5,25.5 Z"/></g>
<g><path style="opacity:1" fill="#d82434" d="M 118.5,22.5 C 118.672,23.4916 118.338,24.1583 117.5,24.5C 96.9032,19.9189 86.4032,28.2523 86,49.5C 84.9734,53.4259 83.4734,57.0926 81.5,60.5C 80.8333,60.5 80.5,60.8333 80.5,61.5C 79.8333,61.5 79.5,61.8333 79.5,62.5C 71.968,70.7418 62.6347,73.5751 51.5,71C 49.5087,70.6264 47.842,69.793 46.5,68.5C 46.3562,62.7645 46.6895,57.4311 47.5,52.5C 48.1667,53.8333 49.1667,54.8333 50.5,55.5C 55.7694,58.1171 61.1027,58.1171 66.5,55.5C 68.5041,54.3272 70.0041,52.6605 71,50.5C 72.2645,46.2457 73.0978,41.9124 73.5,37.5C 73.5,36.5 73.5,35.5 73.5,34.5C 74.3382,34.1583 74.6716,33.4916 74.5,32.5C 75.3382,32.1583 75.6716,31.4916 75.5,30.5C 76.3382,30.1583 76.6716,29.4916 76.5,28.5C 77.1667,28.5 77.5,28.1667 77.5,27.5C 78.3382,27.1583 78.6716,26.4916 78.5,25.5C 86.814,17.122 96.814,14.2887 108.5,17C 112.311,18.0699 115.644,19.9033 118.5,22.5 Z"/></g>
<g><path style="opacity:1" fill="#d71c32" d="M 24.5,20.5 C 24.5524,36.321 24.5524,52.321 24.5,68.5C 21.4797,71.5162 18.1464,74.1829 14.5,76.5C 12.8429,62.8574 11.8429,48.8574 11.5,34.5C 10.8933,34.6236 10.56,34.9569 10.5,35.5C 4.4742,34.7587 1.80753,31.4254 2.5,25.5C 7.98355,22.257 13.6502,19.257 19.5,16.5C 21.7615,17.0953 23.4281,18.4286 24.5,20.5 Z"/></g>
<g><path style="opacity:0.737" fill="#d7787c" d="M 41.5,22.5 C 40.5,23.8333 39.5,25.1667 38.5,26.5C 37.8333,26.8333 37.1667,27.1667 36.5,27.5C 37.1667,24.8333 38.8333,23.1667 41.5,22.5 Z"/></g>
<g><path style="opacity:0.996" fill="#faf8f8" d="M 117.5,24.5 C 119.808,26.4707 122.142,28.4707 124.5,30.5C 125.833,31.1667 126.833,32.1667 127.5,33.5C 126.834,36.0277 126.168,38.6944 125.5,41.5C 123.459,42.2357 121.459,43.0691 119.5,44C 121.459,44.9309 123.459,45.7643 125.5,46.5C 126.48,49.0865 126.813,51.7531 126.5,54.5C 126.011,55.9952 125.345,57.3285 124.5,58.5C 124.565,58.0618 124.399,57.7284 124,57.5C 121.914,60.0939 119.414,62.0939 116.5,63.5C 116.66,61.8008 116.494,60.1341 116,58.5C 113.455,57.4782 110.955,56.3116 108.5,55C 107.177,54.1841 106.511,53.0174 106.5,51.5C 106.389,50.8826 106.056,50.3826 105.5,50C 107.613,46.8268 108.613,43.3268 108.5,39.5C 109.128,29.8169 104.794,26.3169 95.5,29C 94.2713,30.5292 92.7713,31.6959 91,32.5C 91.0052,35.536 91.5052,38.536 92.5,41.5C 92.4021,43.5529 93.0687,45.2196 94.5,46.5C 95.0891,49.2762 96.4224,51.6096 98.5,53.5C 99.1667,54.1667 99.8333,54.8333 100.5,55.5C 98.5165,55.6168 96.8498,54.9501 95.5,53.5C 93.9713,54.7629 92.3046,55.7629 90.5,56.5C 89.5714,55.0639 88.4048,53.7305 87,52.5C 85.6429,55.8981 83.8096,58.8981 81.5,61.5C 81.5,61.1667 81.5,60.8333 81.5,60.5C 83.4734,57.0926 84.9734,53.4259 86,49.5C 86.4032,28.2523 96.9032,19.9189 117.5,24.5 Z"/></g>
<g><path style="opacity:1" fill="#ae1926" d="M 24.5,20.5 C 26.1667,21.5 27.5,22.8333 28.5,24.5C 28.8151,38.5787 28.4818,52.5787 27.5,66.5C 27.0269,67.9063 26.0269,68.573 24.5,68.5C 24.5524,52.321 24.5524,36.321 24.5,20.5 Z"/></g>
<g><path style="opacity:0.702" fill="#b24f4f" d="M 118.5,22.5 C 121.471,24.4426 123.471,27.1092 124.5,30.5C 122.142,28.4707 119.808,26.4707 117.5,24.5C 118.338,24.1583 118.672,23.4916 118.5,22.5 Z"/></g>
<g><path style="opacity:1" fill="#111111" d="M 108.5,39.5 C 107.71,40.6085 107.21,41.9419 107,43.5C 106.535,42.0692 105.701,40.9025 104.5,40C 101.773,39.1816 99.1062,39.3483 96.5,40.5C 97.3966,40.6691 98.3966,41.0024 99.5,41.5C 97.6587,42.2304 95.8254,42.8971 94,43.5C 93.7216,42.5842 93.2216,41.9175 92.5,41.5C 91.5052,38.536 91.0052,35.536 91,32.5C 92.7713,31.6959 94.2713,30.5292 95.5,29C 104.794,26.3169 109.128,29.8169 108.5,39.5 Z"/></g>
<g><path style="opacity:1" fill="#92a5a2" d="M 70.5,37.5 C 65.9833,32.2475 60.3166,30.4142 53.5,32C 54.2524,32.6708 54.5858,33.5041 54.5,34.5C 54.5,34.8333 54.5,35.1667 54.5,35.5C 53.2719,34.6935 52.2719,33.6935 51.5,32.5C 51.6107,31.8826 51.944,31.3826 52.5,31C 56.1667,30.3333 59.8333,30.3333 63.5,31C 67.0084,32.0117 69.3418,34.1783 70.5,37.5 Z"/></g>
<g><path style="opacity:1" fill="#d64e48" d="M 2.5,25.5 C 1.80753,31.4254 4.4742,34.7587 10.5,35.5C 9.1252,37.0698 7.45853,37.9031 5.5,38C 3.35033,34.8533 1.35033,31.6867 -0.5,28.5C -0.5,27.8333 -0.5,27.1667 -0.5,26.5C 0.391047,25.8902 1.39105,25.5569 2.5,25.5 Z"/></g>
<g><path style="opacity:1" fill="#a91926" d="M 38.5,26.5 C 39.2033,39.038 39.8699,51.7047 40.5,64.5C 35.4919,61.1565 32.4919,56.4898 31.5,50.5C 31.3921,45.1301 31.7255,39.7968 32.5,34.5C 33.0787,31.6689 34.412,29.3356 36.5,27.5C 37.1667,27.1667 37.8333,26.8333 38.5,26.5 Z"/></g>
<g><path style="opacity:0.271" fill="#e26172" d="M 10.5,35.5 C 10.56,34.9569 10.8933,34.6236 11.5,34.5C 11.8429,48.8574 12.8429,62.8574 14.5,76.5C 13.791,77.404 12.791,77.7373 11.5,77.5C 11.8291,63.3234 11.4958,49.3234 10.5,35.5 Z"/></g>
<g><path style="opacity:1" fill="#e6e8e9" d="M 70.5,37.5 C 70.8064,40.3854 70.4731,43.0521 69.5,45.5C 67.7839,45.3713 66.1172,45.038 64.5,44.5C 63.8333,44.1667 63.1667,43.8333 62.5,43.5C 61.5244,42.1851 60.5244,40.8518 59.5,39.5C 59.5,41.1667 59.5,42.8333 59.5,44.5C 58.1249,41.4529 55.7916,40.1196 52.5,40.5C 52.2606,42.4672 52.5939,44.3005 53.5,46C 52.1416,46.9344 50.8083,47.7677 49.5,48.5C 48.5,48.5 47.5,48.5 46.5,48.5C 45.7758,42.3428 47.4425,37.0095 51.5,32.5C 52.2719,33.6935 53.2719,34.6935 54.5,35.5C 54.9528,36.4584 55.6195,37.2917 56.5,38C 60.77,38.2569 64.77,39.4235 68.5,41.5C 68.8333,41.1667 69.1667,40.8333 69.5,40.5C 65.5665,36.2846 60.5665,34.2846 54.5,34.5C 54.5858,33.5041 54.2524,32.6708 53.5,32C 60.3166,30.4142 65.9833,32.2475 70.5,37.5 Z"/></g>
<g><path style="opacity:1" fill="#3a8958" d="M 54.5,34.5 C 60.5665,34.2846 65.5665,36.2846 69.5,40.5C 69.1667,40.8333 68.8333,41.1667 68.5,41.5C 64.77,39.4235 60.77,38.2569 56.5,38C 55.6195,37.2917 54.9528,36.4584 54.5,35.5C 54.5,35.1667 54.5,34.8333 54.5,34.5 Z"/></g>
<g><path style="opacity:1" fill="#dadada" d="M 108.5,39.5 C 108.613,43.3268 107.613,46.8268 105.5,50C 106.056,50.3826 106.389,50.8826 106.5,51.5C 104.772,53.2255 102.772,54.5589 100.5,55.5C 99.8333,54.8333 99.1667,54.1667 98.5,53.5C 102.326,52.5204 102.326,51.6871 98.5,51C 97.1498,49.2817 95.9832,47.4484 95,45.5C 94.6012,45.7284 94.4346,46.0618 94.5,46.5C 93.0687,45.2196 92.4021,43.5529 92.5,41.5C 93.2216,41.9175 93.7216,42.5842 94,43.5C 95.8254,42.8971 97.6587,42.2304 99.5,41.5C 98.3966,41.0024 97.3966,40.6691 96.5,40.5C 99.1062,39.3483 101.773,39.1816 104.5,40C 105.701,40.9025 106.535,42.0692 107,43.5C 107.21,41.9419 107.71,40.6085 108.5,39.5 Z"/></g>
<g><path style="opacity:0.965" fill="#fbf4f4" d="M 139.5,38.5 C 139.5,42.1667 139.5,45.8333 139.5,49.5C 137.5,48.024 135.833,46.1906 134.5,44C 135.833,41.8094 137.5,39.976 139.5,38.5 Z"/></g>
<g><path style="opacity:1" fill="#d72e36" d="M 127.5,33.5 C 128.748,35.6491 130.248,37.6491 132,39.5C 134.558,38.0455 137.058,37.7121 139.5,38.5C 137.5,39.976 135.833,41.8094 134.5,44C 135.833,46.1906 137.5,48.024 139.5,49.5C 137.235,50.3424 134.902,50.0091 132.5,48.5C 130.493,50.5332 128.493,52.5332 126.5,54.5C 126.813,51.7531 126.48,49.0865 125.5,46.5C 123.459,45.7643 121.459,44.9309 119.5,44C 121.459,43.0691 123.459,42.2357 125.5,41.5C 126.168,38.6944 126.834,36.0277 127.5,33.5 Z"/></g>
<g><path style="opacity:1" fill="#454545" d="M 101.5,40.5 C 103.983,40.73 104.483,41.3966 103,42.5C 101.97,42.1639 101.47,41.4972 101.5,40.5 Z"/></g>
<g><path style="opacity:1" fill="#b1b9b7" d="M 51.5,32.5 C 47.4425,37.0095 45.7758,42.3428 46.5,48.5C 47.5,48.5 48.5,48.5 49.5,48.5C 50.8333,48.5 51.5,49.1667 51.5,50.5C 51.4226,51.7498 50.756,52.5831 49.5,53C 50.2524,53.6708 50.5858,54.5041 50.5,55.5C 49.1667,54.8333 48.1667,53.8333 47.5,52.5C 46.1995,51.1184 45.3661,49.4517 45,47.5C 43.4026,40.7077 45.5693,35.7077 51.5,32.5 Z"/></g>
<g><path style="opacity:1" fill="#abb0af" d="M 72.5,36.5 C 72.5,37.1667 72.8333,37.5 73.5,37.5C 73.0978,41.9124 72.2645,46.2457 71,50.5C 70.0041,52.6605 68.5041,54.3272 66.5,55.5C 66.5106,53.9826 67.1772,52.8159 68.5,52C 67.944,51.6174 67.6107,51.1174 67.5,50.5C 67.9382,50.5654 68.2716,50.3988 68.5,50C 65.7063,48.4645 63.7063,46.2978 62.5,43.5C 63.1667,43.8333 63.8333,44.1667 64.5,44.5C 65.8786,46.5969 67.5453,46.9302 69.5,45.5C 70.4731,43.0521 70.8064,40.3854 70.5,37.5C 71.1667,37.1667 71.8333,36.8333 72.5,36.5 Z"/></g>
<g><path style="opacity:0.293" fill="#bb727a" d="M 28.5,24.5 C 29.1663,31.3252 29.4997,38.3252 29.5,45.5C 29.4971,52.8667 28.8304,59.8667 27.5,66.5C 28.4818,52.5787 28.8151,38.5787 28.5,24.5 Z"/></g>
<g><path style="opacity:0.69" fill="#c3797d" d="M 32.5,34.5 C 31.7255,39.7968 31.3921,45.1301 31.5,50.5C 30.8373,48.5274 30.5039,46.3608 30.5,44C 30.3275,40.5226 30.9942,37.356 32.5,34.5 Z"/></g>
<g><path style="opacity:1" fill="#251a19" d="M 64.5,44.5 C 66.1172,45.038 67.7839,45.3713 69.5,45.5C 67.5453,46.9302 65.8786,46.5969 64.5,44.5 Z"/></g>
<g><path style="opacity:1" fill="#76564a" d="M 62.5,43.5 C 63.7063,46.2978 65.7063,48.4645 68.5,50C 68.2716,50.3988 67.9382,50.5654 67.5,50.5C 63.0219,50.2072 57.6885,50.2072 51.5,50.5C 51.5,49.1667 50.8333,48.5 49.5,48.5C 50.8083,47.7677 52.1416,46.9344 53.5,46C 52.5939,44.3005 52.2606,42.4672 52.5,40.5C 55.7916,40.1196 58.1249,41.4529 59.5,44.5C 59.5,42.8333 59.5,41.1667 59.5,39.5C 60.5244,40.8518 61.5244,42.1851 62.5,43.5 Z"/></g>
<g><path style="opacity:1" fill="#5b5b5b" d="M 98.5,45.5 C 102.814,45.7721 103.314,47.1055 100,49.5C 99.2496,48.8742 98.4162,48.3742 97.5,48C 98.2524,47.3292 98.5858,46.4959 98.5,45.5 Z"/></g>
<g><path style="opacity:0.695" fill="#221f1f" d="M 518.5,47.5 C 520.017,47.5106 521.184,48.1772 522,49.5C 523.241,47.5794 524.741,47.246 526.5,48.5C 525.96,49.7481 525.293,50.9148 524.5,52C 527.885,52.881 529.552,55.0477 529.5,58.5C 527.174,57.0474 524.674,55.7141 522,54.5C 517.712,56.9259 516.378,60.5926 518,65.5C 521.307,68.4584 524.141,68.125 526.5,64.5C 524.955,63.5481 523.288,63.2148 521.5,63.5C 521.5,62.5 521.5,61.5 521.5,60.5C 524.5,60.5 527.5,60.5 530.5,60.5C 530.5,63.5 530.5,66.5 530.5,69.5C 529.178,69.67 528.011,69.3366 527,68.5C 516.788,72.3066 512.455,68.6399 514,57.5C 515.26,54.5719 517.427,52.7386 520.5,52C 518.963,50.8904 518.297,49.3904 518.5,47.5 Z"/></g>
<g><path style="opacity:0.688" fill="#221f1f" d="M 166.5,48.5 C 167.5,48.5 168.5,48.5 169.5,48.5C 169.5,49.5 169.5,50.5 169.5,51.5C 168.5,51.5 167.5,51.5 166.5,51.5C 166.5,50.5 166.5,49.5 166.5,48.5 Z"/></g>
<g><path style="opacity:0.765" fill="#221f1f" d="M 170.5,48.5 C 171.5,48.5 172.5,48.5 173.5,48.5C 173.5,49.5 173.5,50.5 173.5,51.5C 172.5,51.5 171.5,51.5 170.5,51.5C 170.5,50.5 170.5,49.5 170.5,48.5 Z"/></g>
<g><path style="opacity:0.689" fill="#221f1f" d="M 211.5,48.5 C 212.5,48.5 213.5,48.5 214.5,48.5C 214.5,49.5 214.5,50.5 214.5,51.5C 213.5,51.5 212.5,51.5 211.5,51.5C 211.5,50.5 211.5,49.5 211.5,48.5 Z"/></g>
<g><path style="opacity:0.765" fill="#221f1f" d="M 215.5,48.5 C 216.5,48.5 217.5,48.5 218.5,48.5C 218.5,49.5 218.5,50.5 218.5,51.5C 217.5,51.5 216.5,51.5 215.5,51.5C 215.5,50.5 215.5,49.5 215.5,48.5 Z"/></g>
<g><path style="opacity:0.627" fill="#221f1f" d="M 533.5,48.5 C 534.5,48.5 535.5,48.5 536.5,48.5C 536.5,49.5 536.5,50.5 536.5,51.5C 535.5,51.5 534.5,51.5 533.5,51.5C 533.5,50.5 533.5,49.5 533.5,48.5 Z"/></g>
<g><path style="opacity:1" fill="#eeefef" d="M 67.5,50.5 C 67.6107,51.1174 67.944,51.6174 68.5,52C 67.1772,52.8159 66.5106,53.9826 66.5,55.5C 61.1027,58.1171 55.7694,58.1171 50.5,55.5C 50.5858,54.5041 50.2524,53.6708 49.5,53C 50.756,52.5831 51.4226,51.7498 51.5,50.5C 57.6885,50.2072 63.0219,50.2072 67.5,50.5 Z"/></g>
<g><path style="opacity:1" fill="#141414" d="M 98.5,53.5 C 96.4224,51.6096 95.0891,49.2762 94.5,46.5C 94.4346,46.0618 94.6012,45.7284 95,45.5C 95.9832,47.4484 97.1498,49.2817 98.5,51C 102.326,51.6871 102.326,52.5204 98.5,53.5 Z"/></g>
<g><path style="opacity:0.706" fill="#221f1f" d="M 378.5,51.5 C 384.07,50.864 387.07,53.1973 387.5,58.5C 385.187,57.3317 382.854,55.9983 380.5,54.5C 377.264,55.6222 376.931,57.1222 379.5,59C 386.522,58.6825 389.022,61.8492 387,68.5C 384.239,69.4992 382.906,71.4992 383,74.5C 381.644,75.3802 380.144,75.7135 378.5,75.5C 378.66,73.8008 378.494,72.1341 378,70.5C 374.651,69.3235 373.151,66.9902 373.5,63.5C 375.824,63.6615 377.491,64.8282 378.5,67C 380.441,67.7429 382.274,67.5762 384,66.5C 384.749,65.365 384.583,64.365 383.5,63.5C 380.492,62.9346 377.659,61.9346 375,60.5C 374.333,58.1667 374.333,55.8333 375,53.5C 376.302,52.9152 377.469,52.2485 378.5,51.5 Z"/></g>
<g><path style="opacity:1" fill="#14100f" d="M 106.5,51.5 C 106.511,53.0174 107.177,54.1841 108.5,55C 110.955,56.3116 113.455,57.4782 116,58.5C 116.494,60.1341 116.66,61.8008 116.5,63.5C 115.508,63.3284 114.842,63.6618 114.5,64.5C 104.633,67.2111 96.6332,64.5445 90.5,56.5C 92.3046,55.7629 93.9713,54.7629 95.5,53.5C 96.8498,54.9501 98.5165,55.6168 100.5,55.5C 102.772,54.5589 104.772,53.2255 106.5,51.5 Z"/></g>
<g><path style="opacity:0.761" fill="#221f1f" d="M 147.5,52.5 C 148.5,52.5 149.5,52.5 150.5,52.5C 150.337,54.8568 150.503,57.1902 151,59.5C 153.167,57.3333 155.333,55.1667 157.5,53C 159.167,52.3333 160.833,52.3333 162.5,53C 160.167,55.3333 157.833,57.6667 155.5,60C 157.833,63 160.167,66 162.5,69C 161.407,70.3654 160.074,70.6987 158.5,70C 156.66,67.3313 154.66,64.8313 152.5,62.5C 151.914,62.7093 151.414,63.0426 151,63.5C 150.505,65.4727 150.338,67.4727 150.5,69.5C 149.5,69.5 148.5,69.5 147.5,69.5C 147.5,63.8333 147.5,58.1667 147.5,52.5 Z"/></g>
<g><path style="opacity:0.784" fill="#221f1f" d="M 163.5,52.5 C 164.5,52.5 165.5,52.5 166.5,52.5C 166.334,56.8461 166.501,61.1794 167,65.5C 169.84,68.3707 172.174,68.0374 174,64.5C 174.499,60.5138 174.666,56.5138 174.5,52.5C 175.5,52.5 176.5,52.5 177.5,52.5C 177.666,57.5111 177.499,62.5111 177,67.5C 172.667,71.5 168.333,71.5 164,67.5C 163.501,62.5111 163.334,57.5111 163.5,52.5 Z"/></g>
<g><path style="opacity:0.837" fill="#221f1f" d="M 180.5,52.5 C 181.5,52.5 182.5,52.5 183.5,52.5C 183.5,57.1667 183.5,61.8333 183.5,66.5C 186.5,66.5 189.5,66.5 192.5,66.5C 192.5,67.5 192.5,68.5 192.5,69.5C 188.5,69.5 184.5,69.5 180.5,69.5C 180.5,63.8333 180.5,58.1667 180.5,52.5 Z"/></g>
<g><path style="opacity:0.78" fill="#221f1f" d="M 191.5,52.5 C 196.5,52.5 201.5,52.5 206.5,52.5C 206.5,53.5 206.5,54.5 206.5,55.5C 204.5,55.5 202.5,55.5 200.5,55.5C 200.5,60.1667 200.5,64.8333 200.5,69.5C 199.5,69.5 198.5,69.5 197.5,69.5C 197.5,64.8333 197.5,60.1667 197.5,55.5C 195.5,55.5 193.5,55.5 191.5,55.5C 191.5,54.5 191.5,53.5 191.5,52.5 Z"/></g>
<g><path style="opacity:0.65" fill="#221f1f" d="M 207.5,52.5 C 208.833,52.5 210.167,52.5 211.5,52.5C 211.173,57.2137 211.507,61.8804 212.5,66.5C 214.644,67.9535 216.477,67.6201 218,65.5C 218.499,61.1794 218.666,56.8461 218.5,52.5C 219.833,52.5 221.167,52.5 222.5,52.5C 222.666,56.8461 222.499,61.1794 222,65.5C 219.087,70.6894 214.92,71.8561 209.5,69C 208.874,68.2496 208.374,67.4162 208,66.5C 207.501,61.8452 207.334,57.1785 207.5,52.5 Z"/></g>
<g><path style="opacity:0.759" fill="#221f1f" d="M 225.5,52.5 C 229.514,52.3345 233.514,52.5012 237.5,53C 239.769,55.3622 240.102,58.0288 238.5,61C 239.063,63.7266 239.73,66.3933 240.5,69C 239.167,69.6667 237.833,69.6667 236.5,69C 235.833,67 235.167,65 234.5,63C 232.527,62.5045 230.527,62.3379 228.5,62.5C 228.5,64.8333 228.5,67.1667 228.5,69.5C 227.5,69.5 226.5,69.5 225.5,69.5C 225.5,63.8333 225.5,58.1667 225.5,52.5 Z M 228.5,55.5 C 230.833,55.5 233.167,55.5 235.5,55.5C 235.5,56.8333 235.5,58.1667 235.5,59.5C 233.167,59.5 230.833,59.5 228.5,59.5C 228.5,58.1667 228.5,56.8333 228.5,55.5 Z"/></g>
<g><path style="opacity:0.726" fill="#221f1f" d="M 247.5,52.5 C 248.822,52.33 249.989,52.6634 251,53.5C 252.136,57.2432 253.47,60.9099 255,64.5C 256.477,60.5701 257.644,56.5701 258.5,52.5C 259.833,52.5 261.167,52.5 262.5,52.5C 260.974,57.9103 259.141,63.2436 257,68.5C 255.644,69.3802 254.144,69.7135 252.5,69.5C 250.635,63.9034 248.968,58.2368 247.5,52.5 Z"/></g>
<g><path style="opacity:0.786" fill="#221f1f" d="M 264.5,52.5 C 268.833,52.5 273.167,52.5 277.5,52.5C 277.5,53.5 277.5,54.5 277.5,55.5C 274.167,55.5 270.833,55.5 267.5,55.5C 267.5,56.8333 267.5,58.1667 267.5,59.5C 270.5,59.5 273.5,59.5 276.5,59.5C 276.5,60.5 276.5,61.5 276.5,62.5C 273.5,62.5 270.5,62.5 267.5,62.5C 267.5,63.8333 267.5,65.1667 267.5,66.5C 270.833,66.5 274.167,66.5 277.5,66.5C 277.5,67.5 277.5,68.5 277.5,69.5C 273.167,69.5 268.833,69.5 264.5,69.5C 264.5,63.8333 264.5,58.1667 264.5,52.5 Z"/></g>
<g><path style="opacity:0.773" fill="#221f1f" d="M 286.5,52.5 C 290.571,52.2338 294.571,52.5672 298.5,53.5C 302.461,58.6316 302.461,63.7983 298.5,69C 294.514,69.4988 290.514,69.6655 286.5,69.5C 286.5,63.8333 286.5,58.1667 286.5,52.5 Z M 289.5,55.5 C 297.403,55.414 299.736,58.914 296.5,66C 294.26,66.977 291.927,67.477 289.5,67.5C 289.5,63.5 289.5,59.5 289.5,55.5 Z"/></g>
<g><path style="opacity:0.733" fill="#221f1f" d="M 307.5,52.5 C 309.167,52.5 310.833,52.5 312.5,52.5C 314.365,58.0966 316.032,63.7632 317.5,69.5C 314.5,69.8333 313.167,68.5 313.5,65.5C 311.167,65.5 308.833,65.5 306.5,65.5C 306.613,69.8143 304.947,70.981 301.5,69C 303.998,63.6726 305.998,58.1726 307.5,52.5 Z M 309.5,57.5 C 310.339,58.6412 311.006,59.9745 311.5,61.5C 310.675,62.3857 309.675,62.719 308.5,62.5C 308.629,60.7839 308.962,59.1172 309.5,57.5 Z"/></g>
<g><path style="opacity:0.72" fill="#221f1f" d="M 317.5,53.5 C 318.601,52.4017 319.934,52.235 321.5,53C 322.64,54.9734 323.973,56.8067 325.5,58.5C 327.188,56.9706 328.521,55.1373 329.5,53C 330.944,52.2195 332.277,52.3861 333.5,53.5C 329.249,58 327.249,63.3333 327.5,69.5C 326.5,69.5 325.5,69.5 324.5,69.5C 324.009,63.3477 321.675,58.0144 317.5,53.5 Z"/></g>
<g><path style="opacity:0.743" fill="#221f1f" d="M 339.5,52.5 C 340.978,52.238 342.311,52.5713 343.5,53.5C 345.5,58.5 347.5,63.5 349.5,68.5C 348.833,68.8333 348.167,69.1667 347.5,69.5C 345.883,67.6093 343.883,66.276 341.5,65.5C 338.458,65.4245 336.791,66.9245 336.5,70C 335.551,70.6172 334.718,70.4506 334,69.5C 335.503,63.8218 337.336,58.1551 339.5,52.5 Z M 340.5,58.5 C 342.026,59.1047 343.026,60.2714 343.5,62C 342.056,62.7805 340.723,62.6139 339.5,61.5C 340.127,60.5832 340.461,59.5832 340.5,58.5 Z"/></g>
<g><path style="opacity:0.795" fill="#221f1f" d="M 350.5,52.5 C 352.144,52.2865 353.644,52.6198 355,53.5C 357,56.8333 359,60.1667 361,63.5C 361.499,59.8484 361.665,56.1817 361.5,52.5C 362.5,52.5 363.5,52.5 364.5,52.5C 364.5,58.1667 364.5,63.8333 364.5,69.5C 363.022,69.762 361.689,69.4287 360.5,68.5C 358.136,65.3015 355.97,61.9681 354,58.5C 353.501,62.1516 353.335,65.8183 353.5,69.5C 352.5,69.5 351.5,69.5 350.5,69.5C 350.5,63.8333 350.5,58.1667 350.5,52.5 Z"/></g>
<g><path style="opacity:0.616" fill="#221f1f" d="M 367.5,52.5 C 368.833,52.5 370.167,52.5 371.5,52.5C 371.5,58.1667 371.5,63.8333 371.5,69.5C 370.167,69.5 368.833,69.5 367.5,69.5C 367.5,63.8333 367.5,58.1667 367.5,52.5 Z"/></g>
<g><path style="opacity:0.741" fill="#221f1f" d="M 389.5,52.5 C 391.167,52.5 392.833,52.5 394.5,52.5C 395.432,56.2938 396.765,59.9605 398.5,63.5C 400.026,60.256 401.36,56.9227 402.5,53.5C 403.689,52.5713 405.022,52.238 406.5,52.5C 406.5,58.1667 406.5,63.8333 406.5,69.5C 405.5,69.5 404.5,69.5 403.5,69.5C 403.664,66.8127 403.497,64.146 403,61.5C 402.197,64.2442 401.197,66.9109 400,69.5C 398.989,70.3366 397.822,70.67 396.5,70.5C 393.742,57.138 392.409,56.8046 392.5,69.5C 391.5,69.5 390.5,69.5 389.5,69.5C 389.5,63.8333 389.5,58.1667 389.5,52.5 Z"/></g>
<g><path style="opacity:0.732" fill="#221f1f" d="M 414.5,52.5 C 415.833,52.5 417.167,52.5 418.5,52.5C 420.002,58.1726 422.002,63.6726 424.5,69C 421.074,70.2381 419.408,69.0714 419.5,65.5C 417.167,65.5 414.833,65.5 412.5,65.5C 412.803,68.5876 411.47,70.2542 408.5,70.5C 409.899,64.3027 411.899,58.3027 414.5,52.5 Z M 415.5,57.5 C 416.931,58.7804 417.598,60.4471 417.5,62.5C 416.325,62.719 415.325,62.3857 414.5,61.5C 415.246,60.2638 415.579,58.9305 415.5,57.5 Z"/></g>
<g><path style="opacity:0.726" fill="#221f1f" d="M 431.5,52.5 C 443.144,49.6953 447.977,54.0287 446,65.5C 445.535,66.9308 444.701,68.0975 443.5,69C 439.514,69.4988 435.514,69.6655 431.5,69.5C 431.5,63.8333 431.5,58.1667 431.5,52.5 Z M 435.5,55.5 C 443.257,55.503 445.257,59.003 441.5,66C 439.655,67.128 437.655,67.628 435.5,67.5C 435.5,63.5 435.5,59.5 435.5,55.5 Z"/></g>
<g><path style="opacity:0.785" fill="#221f1f" d="M 449.5,52.5 C 453.833,52.5 458.167,52.5 462.5,52.5C 462.5,53.5 462.5,54.5 462.5,55.5C 459.167,55.5 455.833,55.5 452.5,55.5C 452.5,56.8333 452.5,58.1667 452.5,59.5C 455.5,59.5 458.5,59.5 461.5,59.5C 461.5,60.5 461.5,61.5 461.5,62.5C 458.5,62.5 455.5,62.5 452.5,62.5C 452.5,63.8333 452.5,65.1667 452.5,66.5C 455.833,66.5 459.167,66.5 462.5,66.5C 462.5,67.5 462.5,68.5 462.5,69.5C 458.167,69.5 453.833,69.5 449.5,69.5C 449.5,63.8333 449.5,58.1667 449.5,52.5 Z"/></g>
<g><path style="opacity:0.705" fill="#221f1f" d="M 464.5,52.5 C 469.099,52.2 473.599,52.5333 478,53.5C 480.151,56.2162 479.984,58.7162 477.5,61C 478.482,63.7383 479.148,66.5716 479.5,69.5C 478.167,69.5 476.833,69.5 475.5,69.5C 476.498,63.8325 474.164,61.4992 468.5,62.5C 468.5,64.8333 468.5,67.1667 468.5,69.5C 467.167,69.5 465.833,69.5 464.5,69.5C 464.5,63.8333 464.5,58.1667 464.5,52.5 Z M 468.5,55.5 C 470.833,55.5 473.167,55.5 475.5,55.5C 475.5,56.8333 475.5,58.1667 475.5,59.5C 473.167,59.5 470.833,59.5 468.5,59.5C 468.5,58.1667 468.5,56.8333 468.5,55.5 Z"/></g>
<g><path style="opacity:0.795" fill="#221f1f" d="M 481.5,52.5 C 483.144,52.2865 484.644,52.6198 486,53.5C 488,56.8333 490,60.1667 492,63.5C 492.499,59.8484 492.665,56.1817 492.5,52.5C 493.5,52.5 494.5,52.5 495.5,52.5C 495.5,58.1667 495.5,63.8333 495.5,69.5C 494.022,69.762 492.689,69.4287 491.5,68.5C 489.136,65.3015 486.97,61.9681 485,58.5C 484.501,62.1516 484.335,65.8183 484.5,69.5C 483.5,69.5 482.5,69.5 481.5,69.5C 481.5,63.8333 481.5,58.1667 481.5,52.5 Z"/></g>
<g><path style="opacity:0.699" fill="#221f1f" d="M 498.5,52.5 C 503.167,52.5 507.833,52.5 512.5,52.5C 512.5,53.5 512.5,54.5 512.5,55.5C 509.167,55.5 505.833,55.5 502.5,55.5C 502.5,56.8333 502.5,58.1667 502.5,59.5C 505.5,59.5 508.5,59.5 511.5,59.5C 511.5,60.5 511.5,61.5 511.5,62.5C 508.5,62.5 505.5,62.5 502.5,62.5C 502.5,63.8333 502.5,65.1667 502.5,66.5C 505.833,66.5 509.167,66.5 512.5,66.5C 512.5,67.5 512.5,68.5 512.5,69.5C 507.833,69.5 503.167,69.5 498.5,69.5C 498.5,63.8333 498.5,58.1667 498.5,52.5 Z"/></g>
<g><path style="opacity:0.678" fill="#221f1f" d="M 532.5,52.5 C 533.833,52.5 535.167,52.5 536.5,52.5C 536.5,58.1667 536.5,63.8333 536.5,69.5C 535.167,69.5 533.833,69.5 532.5,69.5C 532.5,63.8333 532.5,58.1667 532.5,52.5 Z"/></g>
<g><path style="opacity:1" fill="#bebebe" d="M 95.5,55.5 C 97.898,56.8823 98.0647,58.549 96,60.5C 95.5065,58.8659 95.3398,57.1992 95.5,55.5 Z"/></g>
<g><path style="opacity:1" fill="#e5e5e5" d="M 102.5,55.5 C 103.043,55.56 103.376,55.8933 103.5,56.5C 102.333,58.1667 101.167,59.8333 100,61.5C 99.6258,60.5838 99.1258,59.7504 98.5,59C 99.7305,57.5952 101.064,56.4286 102.5,55.5 Z"/></g>
<g><path style="opacity:0.749" fill="#c13b3c" d="M 124.5,58.5 C 122.417,62.9177 119.084,65.9177 114.5,67.5C 114.577,66.2502 115.244,65.4169 116.5,65C 115.906,64.5357 115.239,64.369 114.5,64.5C 114.842,63.6618 115.508,63.3284 116.5,63.5C 119.414,62.0939 121.914,60.0939 124,57.5C 124.399,57.7284 124.565,58.0618 124.5,58.5 Z"/></g>
<g><path style="opacity:0.055" fill="#cc9095" d="M 79.5,62.5 C 79.5,61.8333 79.8333,61.5 80.5,61.5C 80.8333,61.5 81.1667,61.5 81.5,61.5C 81.5,62.5 81.5,63.5 81.5,64.5C 80.8333,63.8333 80.1667,63.1667 79.5,62.5 Z"/></g>
<g><path style="opacity:0.994" fill="#da2636" d="M 90.5,56.5 C 96.6332,64.5445 104.633,67.2111 114.5,64.5C 115.239,64.369 115.906,64.5357 116.5,65C 115.244,65.4169 114.577,66.2502 114.5,67.5C 112.879,69.1172 110.879,70.2838 108.5,71C 98.2607,73.3215 89.2607,71.1549 81.5,64.5C 81.5,63.5 81.5,62.5 81.5,61.5C 83.8096,58.8981 85.6429,55.8981 87,52.5C 88.4048,53.7305 89.5714,55.0639 90.5,56.5 Z"/></g>
<g><path style="opacity:0.643" fill="#221f1f" d="M 304.5,88.5 C 304.157,90.2252 303.157,90.7252 301.5,90C 298.513,84.115 296.846,84.2816 296.5,90.5C 295.5,90.5 294.5,90.5 293.5,90.5C 293.5,86.1667 293.5,81.8333 293.5,77.5C 294.5,77.5 295.5,77.5 296.5,77.5C 296.367,82.2717 297.7,82.4384 300.5,78C 301.833,77.3333 303.167,77.3333 304.5,78C 299.296,81.5376 299.296,85.0376 304.5,88.5 Z"/></g>
<g><path style="opacity:0.539" fill="#221f1f" d="M 328.5,77.5 C 329.5,77.5 330.5,77.5 331.5,77.5C 331.5,81.8333 331.5,86.1667 331.5,90.5C 330.5,90.5 329.5,90.5 328.5,90.5C 328.5,86.1667 328.5,81.8333 328.5,77.5 Z"/></g>
<g><path style="opacity:0.572" fill="#221f1f" d="M 358.5,77.5 C 360.43,81.3727 361.097,85.706 360.5,90.5C 359.5,90.5 358.5,90.5 357.5,90.5C 357.858,87.1019 357.192,83.9353 355.5,81C 356.544,79.8261 357.544,78.6594 358.5,77.5 Z"/></g>
<g><path style="opacity:0.638" fill="#221f1f" d="M 372.5,86.5 C 369.915,91.2346 366.915,91.5679 363.5,87.5C 364.025,86.8076 364.692,86.3076 365.5,86C 362.425,82.1972 363.092,79.3638 367.5,77.5C 370.871,78.0398 372.705,80.0398 373,83.5C 373.495,81.5273 373.662,79.5273 373.5,77.5C 375.833,77.5 378.167,77.5 380.5,77.5C 380.5,78.5 380.5,79.5 380.5,80.5C 378.801,80.3398 377.134,80.5065 375.5,81C 377.676,81.1629 379.509,81.9963 381,83.5C 382.363,77.7237 385.363,76.3903 390,79.5C 391.023,83.3169 390.523,86.8169 388.5,90C 384.857,91.3566 382.69,90.1899 382,86.5C 380.666,90.1044 378.166,91.271 374.5,90C 373.177,89.1841 372.511,88.0174 372.5,86.5 Z M 366.5,80.5 C 367.5,80.5 368.5,80.5 369.5,80.5C 369.5,81.5 369.5,82.5 369.5,83.5C 368.5,83.5 367.5,83.5 366.5,83.5C 366.5,82.5 366.5,81.5 366.5,80.5 Z M 385.5,80.5 C 389.318,82.6976 389.485,85.3643 386,88.5C 384.188,85.9543 384.022,83.2877 385.5,80.5 Z M 372.5,86.5 C 374.214,85.2616 376.214,84.595 378.5,84.5C 378.688,86.1033 378.188,87.4366 377,88.5C 375.89,86.9632 374.39,86.2965 372.5,86.5 Z"/></g>
<g><path style="opacity:0.639" fill="#221f1f" d="M 304.5,88.5 C 304.5,85.8333 304.5,83.1667 304.5,80.5C 305.5,80.5 306.5,80.5 307.5,80.5C 308.062,89.5696 309.395,89.5696 311.5,80.5C 312.487,83.7683 312.82,87.1016 312.5,90.5C 309.487,90.8928 306.82,90.2261 304.5,88.5 Z"/></g>
<g><path style="opacity:0.65" fill="#221f1f" d="M 314.5,80.5 C 317.167,80.5 319.833,80.5 322.5,80.5C 322.84,89.5365 324.173,89.5365 326.5,80.5C 327.487,83.7683 327.82,87.1016 327.5,90.5C 320.974,91.7894 318.14,89.1227 319,82.5C 317.105,84.7769 315.938,87.4435 315.5,90.5C 314.513,87.2317 314.18,83.8984 314.5,80.5 Z"/></g>
<g><path style="opacity:0.628" fill="#221f1f" d="M 332.5,80.5 C 333.945,82.6898 335.278,85.0231 336.5,87.5C 337.868,85.363 338.868,83.0297 339.5,80.5C 340.487,83.7683 340.82,87.1016 340.5,90.5C 333.16,91.2115 330.494,87.8781 332.5,80.5 Z"/></g>
<g><path style="opacity:0.596" fill="#221f1f" d="M 342.5,80.5 C 345.604,79.9711 347.937,80.9711 349.5,83.5C 349.12,85.0207 348.954,86.6874 349,88.5C 347.242,89.4695 346.742,90.6361 347.5,92C 346.07,93.4404 344.403,93.7737 342.5,93C 343.662,91.1731 343.328,89.5064 341.5,88C 341.905,87.0546 342.572,86.3879 343.5,86C 341.19,84.5415 340.857,82.7081 342.5,80.5 Z M 344.5,83.5 C 345.077,82.2267 345.743,82.2267 346.5,83.5C 346.03,84.463 345.363,84.463 344.5,83.5 Z"/></g>
</svg>
